<svg xmlns="http://www.w3.org/2000/svg" width="24.091" height="20.207" viewBox="0 0 24.091 20.207">
  <g id="Group_788" data-name="Group 788" transform="translate(-20 -470.281)">
    <path id="icon-tick_bordered" d="M6.153,12.306a6.153,6.153,0,1,1,6.153-6.153A6.153,6.153,0,0,1,6.153,12.306Zm0-10.939a4.786,4.786,0,1,0,4.786,4.786A4.786,4.786,0,0,0,6.153,1.367ZM3.619,6.636l.967-.967.885.884L7.722,4.3l.967.967L5.47,8.487,3.62,6.637Z" transform="translate(31.785 470.281)" fill="#fff"/>
    <path id="profile_9_" data-name="profile (9)" d="M39.567,47.542a5.612,5.612,0,0,1,4.206,5.422v1.87H26.947v-1.87a5.612,5.612,0,0,1,4.207-5.422,6.1,6.1,0,0,0,8.413,0ZM35.36,46.7a4.487,4.487,0,1,1,4.487-4.487A4.487,4.487,0,0,1,35.36,46.7Z" transform="translate(-6.947 435.654)" fill="#fff"/>
  </g>
</svg>
