<svg id="attached" xmlns="http://www.w3.org/2000/svg" width="11.965" height="14.716" viewBox="0 0 11.965 14.716">
  <g id="Group_705" data-name="Group 705" transform="translate(0 0)">
    <g id="Group_704" data-name="Group 704">
      <path id="Path_1382" data-name="Path 1382" d="M59.685,3.642l-3.5-3.5A.482.482,0,0,0,55.848,0H48.34a.48.48,0,0,0-.48.48V14.236a.48.48,0,0,0,.48.48H59.345a.48.48,0,0,0,.48-.48V3.982A.485.485,0,0,0,59.685,3.642Zm-3.361-2L58.186,3.5H56.323Zm2.542,12.118H48.82V.96h6.544V3.982a.48.48,0,0,0,.48.48h3.022v9.295Z" transform="translate(-47.86 0)" fill="#c2c2c2"/>
    </g>
  </g>
  <g id="Group_707" data-name="Group 707" transform="translate(2.781 5.452)">
    <g id="Group_706" data-name="Group 706">
      <path id="Path_1383" data-name="Path 1383" d="M150.417,190.277a2.1,2.1,0,0,0-2.963,0l-2.685,2.685a.48.48,0,0,0,.679.679l2.685-2.685a1.135,1.135,0,0,1,1.606,1.606l-3.363,3.363a.328.328,0,0,1-.464-.464l3.207-3.207a.48.48,0,0,0-.679-.679l-3.207,3.207a1.288,1.288,0,1,0,1.821,1.821l3.363-3.363A2.1,2.1,0,0,0,150.417,190.277Z" transform="translate(-144.628 -189.665)" fill="#c2c2c2"/>
    </g>
  </g>
</svg>
