<svg xmlns="http://www.w3.org/2000/svg" width="321.045" height="296.001" viewBox="0 0 321.045 296.001">
  <g id="Group_872" data-name="Group 872" transform="translate(-100 -351)">
    <text id="_30" data-name="30" transform="translate(306.224 597.211)" font-size="13" font-family="Poppins-Regular, Poppins"><tspan x="-7.911" y="0">30</tspan></text>
    <text id="_1" data-name="1" transform="translate(258.048 442.915)" font-size="13" font-family="Poppins-Regular, Poppins"><tspan x="-2.08" y="0">1</tspan></text>
    <text id="_2" data-name="2" transform="translate(303.634 441.915)" font-size="12" font-family="Poppins-Regular, Poppins"><tspan x="-3.45" y="0">2</tspan></text>
    <text id="_3" data-name="3" transform="translate(351.834 440.915)" font-size="11" font-family="Poppins-Regular, Poppins"><tspan x="-3.24" y="0">3</tspan></text>
    <text id="_4" data-name="4" transform="translate(398.829 440.915)" font-size="11" font-family="Poppins-Regular, Poppins"><tspan x="-3.46" y="0">4</tspan></text>
    <text id="_5" data-name="5" transform="translate(118.062 474.041)" font-size="11" font-family="Poppins-Regular, Poppins"><tspan x="-3.454" y="0">5</tspan></text>
    <text id="_6" data-name="6" transform="translate(162.648 472.836)" font-size="11" font-family="Poppins-Regular, Poppins"><tspan x="-3.493" y="0">6</tspan></text>
    <text id="_7" data-name="7" transform="translate(209.643 473.836)" font-size="12" font-family="Poppins-Regular, Poppins"><tspan x="-3.276" y="0">7</tspan></text>
    <text id="_8" data-name="8" transform="translate(257.843 474.041)" font-size="11" font-family="Poppins-Regular, Poppins"><tspan x="-3.47" y="0">8</tspan></text>
    <text id="_9" data-name="9" transform="translate(303.634 474.041)" font-size="11" font-family="Poppins-Regular, Poppins"><tspan x="-3.465" y="0">9</tspan></text>
    <text id="_10" data-name="10" transform="translate(353.629 477.246)" font-size="13" font-family="Poppins-Regular, Poppins"><tspan x="-6.162" y="0">10</tspan></text>
    <text id="_11" data-name="11" transform="translate(398.624 476.041)" font-size="13" font-family="Poppins-Regular, Poppins"><tspan x="-4.16" y="0">11</tspan></text>
    <text id="_12" data-name="12" transform="translate(118.652 516.166)" font-size="13" font-family="Poppins-Regular, Poppins"><tspan x="-5.818" y="0">12</tspan></text>
    <text id="_13" data-name="13" transform="translate(163.238 516.166)" font-size="13" font-family="Poppins-Regular, Poppins"><tspan x="-5.908" y="0">13</tspan></text>
    <text id="_14" data-name="14" transform="translate(209.028 516.166)" font-size="13" font-family="Poppins-Regular, Poppins"><tspan x="-6.168" y="0">14</tspan></text>
    <text id="_15" data-name="15" transform="translate(259.638 517.371)" font-size="13" font-family="Poppins-Regular, Poppins"><tspan x="-6.162" y="0">15</tspan></text>
    <text id="_16" data-name="16" transform="translate(304.224 516.166)" font-size="13" font-family="Poppins-Regular, Poppins"><tspan x="-6.207" y="0">16</tspan></text>
    <text id="_17" data-name="17" transform="translate(352.424 516.166)" font-size="13" font-family="Poppins-Regular, Poppins"><tspan x="-5.629" y="0">17</tspan></text>
    <text id="_18" data-name="18" transform="translate(399.419 516.166)" font-size="13" font-family="Poppins-Regular, Poppins"><tspan x="-6.181" y="0">18</tspan></text>
    <text id="_19" data-name="19" transform="translate(119.857 558.496)" font-size="13" font-family="Poppins-Regular, Poppins"><tspan x="-6.175" y="0">19</tspan></text>
    <text id="_20" data-name="20" transform="translate(162.828 558.496)" font-size="13" font-family="Poppins-Regular, Poppins"><tspan x="-7.82" y="0">20</tspan></text>
    <text id="_21" data-name="21" transform="translate(211.438 558.496)" font-size="13" font-family="Poppins-Regular, Poppins"><tspan x="-5.818" y="0">21</tspan></text>
    <text id="_22" data-name="22" transform="translate(258.228 558.496)" font-size="13" font-family="Poppins-Regular, Poppins"><tspan x="-7.475" y="0">22</tspan></text>
    <text id="_23" data-name="23" transform="translate(306.429 557.496)" font-size="12" font-family="Poppins-Regular, Poppins"><tspan x="-6.984" y="0">23</tspan></text>
    <text id="_24" data-name="24" transform="translate(352.014 558.496)" font-size="13" font-family="Poppins-Regular, Poppins"><tspan x="-7.826" y="0">24</tspan></text>
    <text id="_25" data-name="25" transform="translate(399.009 558.496)" font-size="13" font-family="Poppins-Regular, Poppins"><tspan x="-7.82" y="0">25</tspan></text>
    <text id="_26" data-name="26" transform="translate(118.242 598.416)" font-size="13" font-family="Poppins-Regular, Poppins"><tspan x="-7.865" y="0">26</tspan></text>
    <text id="_27" data-name="27" transform="translate(163.033 597.211)" font-size="13" font-family="Poppins-Regular, Poppins"><tspan x="-7.286" y="0">27</tspan></text>
    <text id="_28" data-name="28" transform="translate(206.208 597.211)" font-size="13" font-family="Poppins-Regular, Poppins"><tspan x="-7.839" y="0">28</tspan></text>
    <text id="_29" data-name="29" transform="translate(259.228 597.211)" font-size="13" font-family="Poppins-Regular, Poppins"><tspan x="-7.833" y="0">29</tspan></text>
    <path id="Path_1454" data-name="Path 1454" d="M119.265,2938.743H440.31" transform="translate(-19.265 -2521.748)" fill="none" stroke="#e9e9f0" stroke-width="1"/>
    <text id="Sun" transform="translate(118.037 399.765)" fill="#373737" font-size="9" font-family="Poppins-Medium, Poppins" font-weight="500"><tspan x="-8.559" y="0">Sun</tspan></text>
    <text id="Mon" transform="translate(163.623 399.765)" fill="#373737" font-size="9" font-family="Poppins-Medium, Poppins" font-weight="500"><tspan x="-9.76" y="0">Mon</tspan></text>
    <text id="Tue" transform="translate(209.823 399.765)" fill="#373737" font-size="9" font-family="Poppins-Medium, Poppins" font-weight="500"><tspan x="-8.235" y="0">Tue</tspan></text>
    <text id="Wed" transform="translate(256.408 399.765)" fill="#373737" font-size="9" font-family="Poppins-Medium, Poppins" font-weight="500"><tspan x="-10.323" y="0">Wed</tspan></text>
    <text id="Thu" transform="translate(303.814 399.765)" fill="#373737" font-size="9" font-family="Poppins-Medium, Poppins" font-weight="500"><tspan x="-8.379" y="0">Thu</tspan></text>
    <text id="Fri" transform="translate(351.424 399.765)" fill="#373737" font-size="9" font-family="Poppins-Medium, Poppins" font-weight="500"><tspan x="-5.233" y="0">Fri</tspan></text>
    <text id="Sat" transform="translate(395.804 397.765)" fill="#373737" font-size="7" font-family="Poppins-Medium, Poppins" font-weight="500"><tspan x="-5.789" y="0">Sat</tspan></text>
    <g id="previous" transform="translate(112.664 355.384)">
      <path id="Path_294" data-name="Path 294" d="M1810.987,4362.342l-7.371,6.557,7.371,6.043" transform="translate(-1803.616 -4362.342)" fill="none" stroke="#b7b7b7" stroke-width="2"/>
    </g>
    <text id="January_2020" data-name="January 2020" transform="translate(255.848 366)" fill="#0670b4" font-size="14" font-family="Poppins-Medium, Poppins" font-weight="500"><tspan x="-48.16" y="0">January 2020</tspan></text>
    <g id="next" transform="translate(400.605 355.384)">
      <path id="Path_294-2" data-name="Path 294" d="M1803.616,4362.342l7.375,6.557-7.375,6.043" transform="translate(-1803.616 -4362.342)" fill="none" stroke="#b7b7b7" stroke-width="2"/>
    </g>
    <text id="_31" data-name="31" transform="translate(357.244 597.211)" font-size="13" font-family="Poppins-Regular, Poppins"><tspan x="-5.908" y="0">31</tspan></text>
    <ellipse id="Ellipse_480" data-name="Ellipse 480" cx="17.473" cy="17.473" rx="17.473" ry="17.473" transform="translate(288.584 536.061)" fill="#0670b4" opacity="0.2"/>
    <ellipse id="Ellipse_482" data-name="Ellipse 482" cx="17.473" cy="17.473" rx="17.473" ry="17.473" transform="translate(100.602 575.981)" fill="#ff9100" opacity="0.39"/>
    <ellipse id="Ellipse_479" data-name="Ellipse 479" cx="17.473" cy="17.473" rx="17.473" ry="17.473" transform="translate(241.588 494.936)" fill="#ff9100" opacity="0.39"/>
    <ellipse id="Ellipse_481" data-name="Ellipse 481" cx="17.473" cy="17.473" rx="17.473" ry="17.473" transform="translate(335.579 454.811)" fill="#7f0" opacity="0.39"/>
    <g id="Group_850" data-name="Group 850" transform="translate(102.422 635.001)">
      <text id="Public_holiday" data-name="Public holiday" transform="translate(83.485 9)" fill="#454545" font-size="9" font-family="Poppins-Regular, Poppins"><tspan x="-62.532" y="0">Public holiday</tspan></text>
      <circle id="Ellipse_457" data-name="Ellipse 457" cx="4.82" cy="4.82" r="4.82" transform="translate(0 1.205)" fill="#f9ce96"/>
      <circle id="Ellipse_458" data-name="Ellipse 458" cx="4.82" cy="4.82" r="4.82" transform="translate(108.451 1.205)" fill="#c4f996"/>
      <text id="Annual_leave" data-name="Annual  leave" transform="translate(189.936 9)" fill="#454545" font-size="9" font-family="Poppins-Regular, Poppins"><tspan x="-60.957" y="0" xml:space="preserve">Annual  leave</tspan></text>
    </g>
  </g>
</svg>
