<svg xmlns="http://www.w3.org/2000/svg" width="266.426" height="211" viewBox="0 0 266.426 211">
  <g id="Group_871" data-name="Group 871" transform="translate(-403 -420)">
    <text id="_30" data-name="30" transform="translate(574.5 594)" font-size="11" font-family="Poppins-Regular, Poppins"><tspan x="-6.694" y="0">30</tspan></text>
    <text id="_1" data-name="1" transform="translate(534.5 495)" font-size="11" font-family="Poppins-Regular, Poppins"><tspan x="-1.76" y="0">1</tspan></text>
    <text id="_2" data-name="2" transform="translate(572.5 495)" font-size="11" font-family="Poppins-Regular, Poppins"><tspan x="-3.162" y="0">2</tspan></text>
    <text id="_3" data-name="3" transform="translate(612.5 495)" font-size="11" font-family="Poppins-Regular, Poppins"><tspan x="-3.24" y="0">3</tspan></text>
    <text id="_4" data-name="4" transform="translate(651.5 495)" font-size="11" font-family="Poppins-Regular, Poppins"><tspan x="-3.46" y="0">4</tspan></text>
    <text id="_5" data-name="5" transform="translate(418.5 520)" font-size="11" font-family="Poppins-Regular, Poppins"><tspan x="-3.454" y="0">5</tspan></text>
    <text id="_6" data-name="6" transform="translate(455.5 519)" font-size="11" font-family="Poppins-Regular, Poppins"><tspan x="-3.493" y="0">6</tspan></text>
    <text id="_7" data-name="7" transform="translate(494.5 519)" font-size="11" font-family="Poppins-Regular, Poppins"><tspan x="-3.003" y="0">7</tspan></text>
    <text id="_8" data-name="8" transform="translate(534.5 520)" font-size="11" font-family="Poppins-Regular, Poppins"><tspan x="-3.47" y="0">8</tspan></text>
    <text id="_9" data-name="9" transform="translate(572.5 520)" font-size="11" font-family="Poppins-Regular, Poppins"><tspan x="-3.465" y="0">9</tspan></text>
    <text id="_10" data-name="10" transform="translate(613.5 521)" font-size="11" font-family="Poppins-Regular, Poppins"><tspan x="-5.214" y="0">10</tspan></text>
    <text id="_11" data-name="11" transform="translate(651.5 520)" font-size="11" font-family="Poppins-Regular, Poppins"><tspan x="-3.52" y="0">11</tspan></text>
    <text id="_12" data-name="12" transform="translate(418.5 545)" font-size="11" font-family="Poppins-Regular, Poppins"><tspan x="-4.922" y="0">12</tspan></text>
    <text id="_13" data-name="13" transform="translate(455.5 545)" font-size="11" font-family="Poppins-Regular, Poppins"><tspan x="-5" y="0">13</tspan></text>
    <text id="_14" data-name="14" transform="translate(493.5 545)" font-size="11" font-family="Poppins-Regular, Poppins"><tspan x="-5.22" y="0">14</tspan></text>
    <text id="_15" data-name="15" transform="translate(535.5 546)" font-size="11" font-family="Poppins-Regular, Poppins"><tspan x="-5.214" y="0">15</tspan></text>
    <text id="_16" data-name="16" transform="translate(572.5 545)" font-size="11" font-family="Poppins-Regular, Poppins"><tspan x="-5.253" y="0">16</tspan></text>
    <text id="_17" data-name="17" transform="translate(612.5 545)" font-size="11" font-family="Poppins-Regular, Poppins"><tspan x="-4.763" y="0">17</tspan></text>
    <text id="_18" data-name="18" transform="translate(651.5 545)" font-size="11" font-family="Poppins-Regular, Poppins"><tspan x="-5.231" y="0">18</tspan></text>
    <text id="_19" data-name="19" transform="translate(419.5 571)" font-size="11" font-family="Poppins-Regular, Poppins"><tspan x="-5.225" y="0">19</tspan></text>
    <text id="_20" data-name="20" transform="translate(455.5 571)" font-size="11" font-family="Poppins-Regular, Poppins"><tspan x="-6.616" y="0">20</tspan></text>
    <text id="_21" data-name="21" transform="translate(495.5 571)" font-size="11" font-family="Poppins-Regular, Poppins"><tspan x="-4.922" y="0">21</tspan></text>
    <text id="_22" data-name="22" transform="translate(534.5 571)" font-size="11" font-family="Poppins-Regular, Poppins"><tspan x="-6.325" y="0">22</tspan></text>
    <text id="_23" data-name="23" transform="translate(574.5 571)" font-size="11" font-family="Poppins-Regular, Poppins"><tspan x="-6.402" y="0">23</tspan></text>
    <text id="_24" data-name="24" transform="translate(612.5 571)" font-size="11" font-family="Poppins-Regular, Poppins"><tspan x="-6.622" y="0">24</tspan></text>
    <text id="_25" data-name="25" transform="translate(651.5 571)" font-size="11" font-family="Poppins-Regular, Poppins"><tspan x="-6.616" y="0">25</tspan></text>
    <text id="_26" data-name="26" transform="translate(418.5 595)" font-size="11" font-family="Poppins-Regular, Poppins"><tspan x="-6.655" y="0">26</tspan></text>
    <text id="_27" data-name="27" transform="translate(455.5 594)" font-size="11" font-family="Poppins-Regular, Poppins"><tspan x="-6.165" y="0">27</tspan></text>
    <text id="_28" data-name="28" transform="translate(491.5 594)" font-size="11" font-family="Poppins-Regular, Poppins"><tspan x="-6.633" y="0">28</tspan></text>
    <text id="_29" data-name="29" transform="translate(535.5 594)" font-size="11" font-family="Poppins-Regular, Poppins"><tspan x="-6.627" y="0">29</tspan></text>
    <path id="Path_1453" data-name="Path 1453" d="M119.265,2938.743H385.691" transform="translate(283.735 -2463.975)" fill="none" stroke="#e9e9f0" stroke-width="1"/>
    <text id="Sun" transform="translate(418.5 461)" fill="#373737" font-size="8" font-family="Poppins-Medium, Poppins" font-weight="500"><tspan x="-7.608" y="0">Sun</tspan></text>
    <text id="Mon" transform="translate(456.5 461)" fill="#373737" font-size="8" font-family="Poppins-Medium, Poppins" font-weight="500"><tspan x="-8.676" y="0">Mon</tspan></text>
    <text id="Tue" transform="translate(494.5 461)" fill="#373737" font-size="8" font-family="Poppins-Medium, Poppins" font-weight="500"><tspan x="-7.32" y="0">Tue</tspan></text>
    <text id="Wed" transform="translate(533.5 461)" fill="#373737" font-size="8" font-family="Poppins-Medium, Poppins" font-weight="500"><tspan x="-9.176" y="0">Wed</tspan></text>
    <text id="Thu" transform="translate(572.5 461)" fill="#373737" font-size="8" font-family="Poppins-Medium, Poppins" font-weight="500"><tspan x="-7.448" y="0">Thu</tspan></text>
    <text id="Fri" transform="translate(612.5 461)" fill="#373737" font-size="8" font-family="Poppins-Medium, Poppins" font-weight="500"><tspan x="-4.652" y="0">Fri</tspan></text>
    <text id="Sat" transform="translate(649.5 460)" fill="#373737" font-size="7" font-family="Poppins-Medium, Poppins" font-weight="500"><tspan x="-5.789" y="0">Sat</tspan></text>
    <g id="previous" transform="translate(413.51 423.638)">
      <path id="Path_294" data-name="Path 294" d="M1809.733,4362.342l-6.117,5.442,6.117,5.015" transform="translate(-1803.616 -4362.342)" fill="none" stroke="#b7b7b7" stroke-width="2"/>
    </g>
    <text id="January_2020" data-name="January 2020" transform="translate(533.5 433)" fill="#0670b4" font-size="12" font-family="Poppins-Medium, Poppins" font-weight="500"><tspan x="-41.28" y="0">January 2020</tspan></text>
    <g id="next" transform="translate(652.463 423.638)">
      <path id="Path_294-2" data-name="Path 294" d="M1803.616,4362.342l6.12,5.442-6.12,5.015" transform="translate(-1803.616 -4362.342)" fill="none" stroke="#b7b7b7" stroke-width="2"/>
    </g>
    <text id="_31" data-name="31" transform="translate(616.5 594)" font-size="11" font-family="Poppins-Regular, Poppins"><tspan x="-5" y="0">31</tspan></text>
    <circle id="Ellipse_474" data-name="Ellipse 474" cx="14.5" cy="14.5" r="14.5" transform="translate(559.5 552)" fill="#0670b4" opacity="0.2"/>
    <circle id="Ellipse_475" data-name="Ellipse 475" cx="14.5" cy="14.5" r="14.5" transform="translate(403.5 576)" fill="#ff9100" opacity="0.39"/>
    <circle id="Ellipse_476" data-name="Ellipse 476" cx="14.5" cy="14.5" r="14.5" transform="translate(520.5 527)" fill="#ff9100" opacity="0.39"/>
    <circle id="Ellipse_477" data-name="Ellipse 477" cx="14.5" cy="14.5" r="14.5" transform="translate(598.5 502)" fill="#7f0" opacity="0.39"/>
    <g id="Group_847" data-name="Group 847" transform="translate(193 -22)">
      <text id="Public_holiday" data-name="Public holiday" transform="translate(287.5 650)" fill="#454545" font-size="8" font-family="Poppins-Regular, Poppins"><tspan x="-55.584" y="0">Public holiday</tspan></text>
      <circle id="Ellipse_457" data-name="Ellipse 457" cx="4" cy="4" r="4" transform="translate(214.5 643)" fill="#f9ce96"/>
      <circle id="Ellipse_458" data-name="Ellipse 458" cx="4" cy="4" r="4" transform="translate(304.5 643)" fill="#c4f996"/>
      <text id="Annual_leave" data-name="Annual  leave" transform="translate(375.5 650)" fill="#454545" font-size="8" font-family="Poppins-Regular, Poppins"><tspan x="-54.184" y="0" xml:space="preserve">Annual  leave</tspan></text>
    </g>
  </g>
</svg>
