<svg id="dashboard_2_" data-name="dashboard (2)" xmlns="http://www.w3.org/2000/svg" width="19" height="19" viewBox="0 0 19 19">
  <path id="Path_1335" data-name="Path 1335" d="M7.323,0H1.385A1.387,1.387,0,0,0,0,1.385V4.948A1.387,1.387,0,0,0,1.385,6.333H7.323A1.387,1.387,0,0,0,8.708,4.948V1.385A1.387,1.387,0,0,0,7.323,0Zm0,0" fill="#fff"/>
  <path id="Path_1336" data-name="Path 1336" d="M7.323,213.332H1.385A1.387,1.387,0,0,0,0,214.718v8.313a1.387,1.387,0,0,0,1.385,1.385H7.323a1.387,1.387,0,0,0,1.386-1.385v-8.312A1.387,1.387,0,0,0,7.323,213.332Zm0,0" transform="translate(0 -205.415)" fill="#fff"/>
  <path id="Path_1337" data-name="Path 1337" d="M284.655,341.332h-5.937a1.387,1.387,0,0,0-1.386,1.386v3.563a1.387,1.387,0,0,0,1.386,1.385h5.937a1.387,1.387,0,0,0,1.385-1.385v-3.562A1.387,1.387,0,0,0,284.655,341.332Zm0,0" transform="translate(-267.04 -328.665)" fill="#fff"/>
  <path id="Path_1338" data-name="Path 1338" d="M284.655,0h-5.937a1.387,1.387,0,0,0-1.386,1.385V9.7a1.387,1.387,0,0,0,1.386,1.386h5.937A1.387,1.387,0,0,0,286.04,9.7V1.385A1.387,1.387,0,0,0,284.655,0Zm0,0" transform="translate(-267.04)" fill="#fff"/>
</svg>
