<svg id="dashboard_2_" data-name="dashboard (2)" xmlns="http://www.w3.org/2000/svg" width="13.281" height="13.281" viewBox="0 0 13.281 13.281">
  <path id="Path_1335" data-name="Path 1335" d="M5.119,0H.968A.969.969,0,0,0,0,.968v2.49a.969.969,0,0,0,.968.968h4.15a.969.969,0,0,0,.968-.968V.968A.969.969,0,0,0,5.119,0Zm0,0" fill="#fff"/>
  <path id="Path_1336" data-name="Path 1336" d="M5.119,213.332H.968A.969.969,0,0,0,0,214.3v5.81a.969.969,0,0,0,.968.968h4.15a.969.969,0,0,0,.968-.968V214.3A.969.969,0,0,0,5.119,213.332Zm0,0" transform="translate(0 -207.798)" fill="#fff"/>
  <path id="Path_1337" data-name="Path 1337" d="M282.451,341.332H278.3a.969.969,0,0,0-.968.968v2.49a.969.969,0,0,0,.968.968h4.15a.969.969,0,0,0,.968-.968V342.3A.969.969,0,0,0,282.451,341.332Zm0,0" transform="translate(-270.138 -332.478)" fill="#fff"/>
  <path id="Path_1338" data-name="Path 1338" d="M282.451,0H278.3a.969.969,0,0,0-.968.968v5.81a.969.969,0,0,0,.968.968h4.15a.969.969,0,0,0,.968-.968V.968A.969.969,0,0,0,282.451,0Zm0,0" transform="translate(-270.138)" fill="#fff"/>
</svg>
