<svg xmlns="http://www.w3.org/2000/svg" width="23.408" height="23.408" viewBox="0 0 23.408 23.408">
  <path id="iconmonstr-calendar-4" d="M19.507,19.507h-3.9v-3.9h3.9ZM13.655,9.754h-3.9v3.9h3.9Zm5.852,0h-3.9v3.9h3.9ZM7.8,15.606H3.9v3.9H7.8Zm5.852,0h-3.9v3.9h3.9ZM7.8,9.754H3.9v3.9H7.8Zm15.606-7.8V23.408H0V1.951H2.926v.975a1.951,1.951,0,1,0,3.9,0V1.951h9.754v.975a1.951,1.951,0,1,0,3.9,0V1.951ZM21.458,7.8H1.951V21.458H21.458ZM19.507.975a.975.975,0,0,0-1.951,0V2.926a.975.975,0,0,0,1.951,0ZM5.852,2.926a.975.975,0,0,1-1.951,0V.975a.975.975,0,0,1,1.951,0Z" fill="#181818"/>
</svg>
