<svg xmlns="http://www.w3.org/2000/svg" width="20" height="19.999" viewBox="0 0 20 19.999">
  <path id="Path_1406" data-name="Path 1406" d="M107.286,96.076a10.009,10.009,0,0,0-11.1,12.022,9.859,9.859,0,0,0,7.446,7.62,10.449,10.449,0,0,0,2.341.269,9.913,9.913,0,0,0,4.424-1.038,1,1,0,0,0-.89-1.793,8,8,0,1,1-2.472-15.1,8.242,8.242,0,0,1,6.928,8.346v.582a2,2,0,1,1-4,0v-4a1,1,0,0,0-1.913-.4,3.857,3.857,0,0,0-2.085-.6c-2.354,0-4,1.85-4,4.5s1.643,4.5,4,4.5a3.745,3.745,0,0,0,2.985-1.4,3.98,3.98,0,0,0,7.011-2.6V106.4A10.247,10.247,0,0,0,107.286,96.076Zm-1.325,12.91c-1.233,0-2-.957-2-2.5s.765-2.5,2-2.5,2,.958,2,2.5S107.194,108.985,105.961,108.985Z" transform="translate(-95.958 -95.988)" fill="#fff"/>
</svg>
