<svg xmlns="http://www.w3.org/2000/svg" width="14.36" height="13.461" viewBox="0 0 14.36 13.461">
  <g id="Group_617" data-name="Group 617" transform="translate(-1252 -328)">
    <g id="money_9_" data-name="money (9)" transform="translate(1252 328)">
      <path id="Path_1332" data-name="Path 1332" d="M12.824.841a.654.654,0,0,1,.469.216.839.839,0,0,1,.224.577v10.41a.585.585,0,0,1-.595.575H10.05a.633.633,0,0,1-.125-.013l-.082-.016H1.532a.645.645,0,0,1-.466-.216A.838.838,0,0,1,.841,11.8V1.635a.839.839,0,0,1,.224-.577A.653.653,0,0,1,1.534.841h.48a1.537,1.537,0,0,0,2.854,0H5.911a1.537,1.537,0,0,0,2.854,0h.91a1.537,1.537,0,0,0,2.854,0h.295m0-.841h-.574A.477.477,0,0,0,11.8.384a.705.705,0,0,1-1.389,0A.466.466,0,0,0,9.955,0H8.486a.477.477,0,0,0-.454.384.705.705,0,0,1-1.388,0A.466.466,0,0,0,6.191,0h-1.6a.477.477,0,0,0-.453.384.705.705,0,0,1-1.389,0A.463.463,0,0,0,2.293,0H1.532A1.6,1.6,0,0,0,0,1.635V11.8a1.6,1.6,0,0,0,1.533,1.635H9.759a1.475,1.475,0,0,0,.291.029h2.872a1.426,1.426,0,0,0,1.436-1.416V1.635A1.6,1.6,0,0,0,12.824,0Z" transform="translate(0.001 0)" fill="#fff"/>
      <path id="Path_1333" data-name="Path 1333" d="M153.816,250.624h-3.223a.562.562,0,0,1,0-1.121h3.223a.55.55,0,0,1,.526.562.541.541,0,0,1-.526.559Zm-.042,3.207h-3.181a.562.562,0,0,1,0-1.122h3.181a.551.551,0,0,1,.527.562.541.541,0,0,1-.527.56Zm0,0-5.217-3.884a.419.419,0,0,1-.295.54.477.477,0,0,1-.591-.27,1.255,1.255,0,0,0-1.269-.656.966.966,0,0,0-1.045.766c-.053.469.384.85,1.141,1,1.513.289,1.957,1.213,1.878,1.916a1.8,1.8,0,0,1-1.507,1.483v.533a.469.469,0,0,1-.933,0v-.517a2.032,2.032,0,0,1-1.689-1.206.419.419,0,0,1,.295-.539.478.478,0,0,1,.591.269,1.255,1.255,0,0,0,1.269.657.966.966,0,0,0,1.045-.766c.053-.469-.384-.85-1.141-.995-1.514-.289-1.958-1.214-1.878-1.917a1.8,1.8,0,0,1,1.507-1.483v-.533a.469.469,0,0,1,.933,0v.519a2.032,2.032,0,0,1,1.688,1.2Z" transform="translate(-142.327 -244.54)" fill="#fff"/>
    </g>
  </g>
</svg>
