<svg xmlns="http://www.w3.org/2000/svg" width="52.039" height="69.216" viewBox="0 0 52.039 69.216"><defs><style>.a{fill:#573a32;stroke:#573a32;}</style></defs><g transform="translate(0.5 0.5)"><g transform="translate(15.967 19.389)"><g transform="translate(0)"><path class="a" d="M185.232,145.672a1,1,0,0,0-1,1v1.141a1,1,0,1,0,2,0V146.67A1,1,0,0,0,185.232,145.672Z" transform="translate(-184.234 -145.672)"/></g></g><g transform="translate(27.372 19.389)"><g transform="translate(0)"><path class="a" d="M270.921,145.672a1,1,0,0,0-1,1v1.141a1,1,0,1,0,2,0V146.67A1,1,0,0,0,270.921,145.672Z" transform="translate(-269.923 -145.672)"/></g></g><g transform="translate(18.248 27.372)"><g transform="translate(0)"><path class="a" d="M209.984,206.019a1,1,0,0,0-1.4-.137,4.711,4.711,0,0,1-5.575,0,1,1,0,0,0-1.268,1.542,6.7,6.7,0,0,0,8.111,0A1,1,0,0,0,209.984,206.019Z" transform="translate(-201.372 -205.655)"/></g></g><g transform="translate(0)"><g transform="translate(0)"><path class="a" d="M102.761,17.442V10.122a7.814,7.814,0,0,0-3.9-6.774A5.559,5.559,0,0,0,93.779,0H82.374A11.276,11.276,0,0,0,71.111,11.263v6.179a3.85,3.85,0,0,0,1.3,7.356,14.706,14.706,0,0,0,6.679,10.284v3.553c0,.134,0,.267.011.4L69,42.145a6.667,6.667,0,0,0-4.73,6.4v9.474a2.14,2.14,0,0,0,1.141,1.89v7.234a1,1,0,1,0,2,0V60.163h5.987v6.985a1,1,0,1,0,2,0V54.222a3.3,3.3,0,0,0-.656-1.968L71.767,48.3a1,1,0,1,0-1.6,1.2l2.965,3.954a1.291,1.291,0,0,1,.257.77v3.944H66.407a.142.142,0,0,1-.142-.142V48.549a4.681,4.681,0,0,1,3.321-4.5l9.882-3.041a7.872,7.872,0,0,0,3.555,4.418,1,1,0,1,0,1-1.729,5.867,5.867,0,0,1-2.929-5.067V36.14A14.679,14.679,0,0,0,101.456,24.8a3.85,3.85,0,0,0,1.3-7.356Zm-1.569,5.369h-.628a1,1,0,0,0-.995.916,12.677,12.677,0,0,1-25.267,0,1,1,0,0,0-.995-.916H72.68a1.852,1.852,0,0,1-.444-3.651l2.62-.044a2.132,2.132,0,0,0,1.877-1.182l1.628-3.256a.131.131,0,0,1,.128-.079,55.893,55.893,0,0,0,7.711-.016,27.978,27.978,0,0,0,10.306-2.428,1,1,0,1,0-.893-1.786c-5.563,2.781-14.409,2.416-16.987,2.238a2.124,2.124,0,0,0-2.051,1.178l-1.628,3.256a.142.142,0,0,1-.125.079l-1.715.029V11.263A9.277,9.277,0,0,1,82.374,2H93.779a3.562,3.562,0,0,1,3.344,2.385,1,1,0,0,0,.482.554,5.828,5.828,0,0,1,3.159,5.187v8.041a1,1,0,0,0,.8.978,1.853,1.853,0,0,1-.372,3.669Z" transform="translate(-64.268 0)"/></g></g><g transform="translate(15.973 33.075)"><g transform="translate(0)"><path class="a" d="M219.34,259.763a11.263,11.263,0,0,0-19.227-7.964l-12.546,12.546a11.262,11.262,0,0,0,15.168,16.62l1.028,2.056a1,1,0,1,0,1.786-.893l-1.966-3.932a2.127,2.127,0,0,0-1.913-1.182h-2.146a4.134,4.134,0,0,1,0-8.268h2.867a4.7,4.7,0,0,1,4.142,2.474l6.369,11.828a1,1,0,1,0,1.758-.946l-4.547-8.444,5.929-5.929A11.19,11.19,0,0,0,219.34,259.763Zm-25.947,13.116a6.138,6.138,0,0,0,6.131,6.131h2.146a.142.142,0,0,1,.127.079l.015.031a9.265,9.265,0,0,1-12.833-13.363l2.963-2.963a63.01,63.01,0,0,0,5.059,4.5A6.138,6.138,0,0,0,193.393,272.879Zm15.731-1.058-.834-1.549a6.692,6.692,0,0,0-5.9-3.524h-2.816a59.52,59.52,0,0,1-6.218-5.368l8.169-8.169a9.266,9.266,0,1,1,13.1,13.1Z" transform="translate(-184.274 -248.5)"/></g></g><g transform="translate(33.075 37.64)"><g transform="translate(0)"><path class="a" d="M324.207,284.759a6.7,6.7,0,1,0,0,9.476A6.708,6.708,0,0,0,324.207,284.759Zm-1.412,8.065a4.7,4.7,0,1,1,0-6.653A4.71,4.71,0,0,1,322.8,292.824Z" transform="translate(-312.768 -282.8)"/></g></g><g transform="translate(37.165 41.726)"><circle class="a" cx="0.998" cy="0.998" r="0.998"/></g><g transform="translate(40.393 44.943)"><circle class="a" cx="0.998" cy="0.998" r="0.998"/></g></g></svg>