<svg xmlns="http://www.w3.org/2000/svg" width="28.025" height="35" viewBox="0 0 28.025 35">
  <g id="grade_2_" data-name="grade (2)" transform="translate(-51)">
    <path id="Path_1500" data-name="Path 1500" d="M78.725,7.136,71.89.3a1.025,1.025,0,0,0-.725-.3H52.025A1.026,1.026,0,0,0,51,1.025V33.971A1.026,1.026,0,0,0,52.025,35H78a1.026,1.026,0,0,0,1.025-1.025V7.861a1.025,1.025,0,0,0-.3-.725ZM72.19,3.5l3.335,3.335H72.19ZM53.051,32.947V2.051H70.139v5.81a1.026,1.026,0,0,0,1.025,1.025h5.81V32.947Z" transform="translate(0 0)" fill="#573a32"/>
    <path id="Path_1501" data-name="Path 1501" d="M260.228,420h-8.2a1.025,1.025,0,1,0,0,2.051h8.2a1.025,1.025,0,0,0,0-2.051Z" transform="translate(-186.329 -391.291)" fill="#573a32"/>
    <path id="Path_1502" data-name="Path 1502" d="M260.228,360h-8.2a1.025,1.025,0,1,0,0,2.051h8.2a1.025,1.025,0,0,0,0-2.051Z" transform="translate(-186.329 -335.392)" fill="#573a32"/>
    <path id="Path_1503" data-name="Path 1503" d="M262.024,148.759h.684v.683a1.025,1.025,0,1,0,2.051,0v-.684h.683a1.025,1.025,0,0,0,0-2.051h-.684v-.684a1.025,1.025,0,1,0-2.051,0v.684h-.684a1.025,1.025,0,0,0,0,2.051Z" transform="translate(-195.644 -135.088)" fill="#573a32"/>
    <path id="Path_1504" data-name="Path 1504" d="M125.076,140.917l-3.815-10.109-.011-.028a1.253,1.253,0,0,0-1.163-.779h0a1.253,1.253,0,0,0-1.163.782l-.009.023-3.85,10.109a1.025,1.025,0,1,0,1.916.73l.708-1.857h4.771l.7,1.855a1.025,1.025,0,0,0,1.919-.724Zm-6.61-3.181,1.615-4.241,1.6,4.241Z" transform="translate(-59.622 -121.114)" fill="#573a32"/>
  </g>
</svg>
