<svg xmlns="http://www.w3.org/2000/svg" width="18.322" height="16.441" viewBox="0 0 18.322 16.441">
  <g id="home_2_" data-name="home (2)" transform="translate(-1.352 0)" opacity="0.68">
    <g id="Group_621" data-name="Group 621" transform="translate(1.352 0)">
      <path id="Path_1334" data-name="Path 1334" d="M19.487,7.539,10.94.154a.668.668,0,0,0-.854,0L1.54,7.539a.543.543,0,0,0,.427.942H4.111v7.412a.584.584,0,0,0,.614.548H7.9V10.8a.584.584,0,0,1,.614-.548h4a.584.584,0,0,1,.614.548v5.64H16.3a.584.584,0,0,0,.614-.548V8.48H19.06A.543.543,0,0,0,19.487,7.539Z" transform="translate(-1.352 0)" fill="#fff"/>
    </g>
  </g>
</svg>
