<svg xmlns="http://www.w3.org/2000/svg" xmlns:xlink="http://www.w3.org/1999/xlink" width="80" height="81" viewBox="0 0 80 81">
  <defs>
    <filter id="Path_1358" x="10.398" y="32.332" width="41.343" height="28.926" filterUnits="userSpaceOnUse">
      <feOffset dy="3" input="SourceAlpha"/>
      <feGaussianBlur stdDeviation="3" result="blur"/>
      <feFlood flood-opacity="0.161"/>
      <feComposite operator="in" in2="blur"/>
      <feComposite in="SourceGraphic"/>
    </filter>
    <filter id="Path_1360" x="8.583" y="20.277" width="31.939" height="39.054" filterUnits="userSpaceOnUse">
      <feOffset dy="3" input="SourceAlpha"/>
      <feGaussianBlur stdDeviation="3" result="blur-2"/>
      <feFlood flood-opacity="0.161"/>
      <feComposite operator="in" in2="blur-2"/>
      <feComposite in="SourceGraphic"/>
    </filter>
    <filter id="Path_1361" x="10.466" y="18.397" width="54.09" height="31.473" filterUnits="userSpaceOnUse">
      <feOffset dy="3" input="SourceAlpha"/>
      <feGaussianBlur stdDeviation="3" result="blur-3"/>
      <feFlood flood-opacity="0.161"/>
      <feComposite operator="in" in2="blur-3"/>
      <feComposite in="SourceGraphic"/>
    </filter>
  </defs>
  <g id="Group_871" data-name="Group 871" transform="translate(-0.411 -0.032)">
    <ellipse id="Ellipse_484" data-name="Ellipse 484" cx="40" cy="40.5" rx="40" ry="40.5" transform="translate(0.411 0.032)" fill="#eaea30"/>
    <g id="mail_1_" data-name="mail (1)" transform="translate(17.994 24.429)">
      <g transform="matrix(1, 0, 0, 1, -17.58, -24.4)" filter="url(#Path_1358)">
        <path id="Path_1358-2" data-name="Path 1358" d="M44.023,230.363l-1.514-1.358-3.723,2.775L35,228.959,20.68,239.885H41.728a12.388,12.388,0,0,1,2.294-9.522Z" transform="translate(-1.28 -190.63)" fill="#fff"/>
      </g>
      <path id="Path_1359" data-name="Path 1359" d="M295.049,104.634a12.385,12.385,0,0,1,12.714-2.173V93.246L293.9,103.6Z" transform="translate(-268.099 -91.223)" fill="#fff"/>
      <g transform="matrix(1, 0, 0, 1, -17.58, -24.4)" filter="url(#Path_1360)">
        <path id="Path_1360-2" data-name="Path 1360" d="M0,91.623v21.054l13.939-10.635Z" transform="translate(17.58 -65.35)" fill="#fff"/>
      </g>
      <g transform="matrix(1, 0, 0, 1, -17.58, -24.4)" filter="url(#Path_1361)">
        <path id="Path_1361-2" data-name="Path 1361" d="M57.539,70.2H21.449L39.486,83.674Z" transform="translate(-1.98 -45.8)" fill="#fff"/>
      </g>
      <path id="Path_1362" data-name="Path 1362" d="M297.289,217.233a9.856,9.856,0,1,0,9.856,9.856A9.867,9.867,0,0,0,297.289,217.233ZM297.4,231a1.361,1.361,0,0,1-1.455-1.323,1.464,1.464,0,0,1,2.91,0A1.361,1.361,0,0,1,297.4,231Zm.992-3.065h-1.984l-.5-4.762h2.976Z" transform="translate(-262.203 -204.327)" fill="#fff"/>
    </g>
  </g>
</svg>
