<svg xmlns="http://www.w3.org/2000/svg" width="24.307" height="24.309" viewBox="0 0 24.307 24.309">
  <g id="Group_736" data-name="Group 736" transform="translate(-15 -88)">
    <path id="Path_1323" data-name="Path 1323" d="M223.576,56.82l-4.322,4.322-10.617-2.753-1.57,1.573,8.648,4.718-4.325,4.325-4.308-1.069-.736.738,6.132,3.958,5.595-5.6,4.717,8.649,1.572-1.571L221.612,63.5l4.322-4.325a1.666,1.666,0,1,0-2.358-2.356Z" transform="translate(-187.254 31.808)" fill="#fff"/>
    <path id="Path_1324" data-name="Path 1324" d="M235.277,134.451l-1.57,1.573,8.647,4.718,3.539-3.539Z" transform="translate(-213.894 -44.254)" fill="#fff"/>
    <path id="Path_1325" data-name="Path 1325" d="M51.2,216.517l4.139-4.139.193.193-4.139,4.139Zm2.113-.117,3.318-3.317.193.193-3.318,3.318Zm2.471-.474,2.138-2.138.193.193-2.138,2.138Zm1.912.083,1.518-1.518.193.193L57.891,216.2Zm1.741.257,1.07-1.07.193.193-1.07,1.07Zm1.621.215.636-.636.193.193-.636.636Zm1.311.454.442-.442.193.193-.442.442Z" transform="translate(-36.2 -120.126)" fill="#fff"/>
    <path id="Path_1326" data-name="Path 1326" d="M631.858,536.777,636,532.638l.193.193-4.139,4.139Zm.117-2.114,3.316-3.318.194.193-3.316,3.317Zm.474-2.472,2.138-2.138.193.193-2.138,2.138Zm-.085-1.912,1.518-1.518.194.193-1.518,1.518Zm-.257-1.741,1.069-1.07.193.193-1.07,1.07Zm-.216-1.621.636-.636.193.193-.635.636Zm-.453-1.311.442-.442.193.193-.442.442Z" transform="translate(-601.135 -424.662)" fill="#fff"/>
    <path id="Path_1327" data-name="Path 1327" d="M450.367,116.076a.137.137,0,0,0-.193,0l-.339.339a.137.137,0,1,0,.193.193l.339-.339A.137.137,0,0,0,450.367,116.076Zm-8.389,8.2-.714.714a.137.137,0,1,0,.193.193l.714-.714a.137.137,0,0,0-.193-.193Zm2.857-2.857-.714.714a.137.137,0,1,0,.193.193l.714-.714a.137.137,0,1,0-.193-.193Zm1.429-1.428-.714.714a.137.137,0,1,0,.193.193l.714-.714a.137.137,0,0,0-.193-.193Zm2.858-2.857-.714.714a.137.137,0,1,0,.193.193l.714-.714a.137.137,0,1,0-.193-.193Zm-1.428,1.428-.714.714a.137.137,0,1,0,.193.193l.714-.714a.137.137,0,0,0-.194-.193Zm-4.286,4.286-.714.714a.137.137,0,0,0,.193.193l.714-.714a.137.137,0,0,0-.193-.193Zm-2.857,2.857-.714.714a.137.137,0,0,0,.193.193l.714-.714a.137.137,0,0,0-.194-.193Zm-1.428,1.428-.339.338a.137.137,0,1,0,.193.193l.339-.339a.137.137,0,0,0-.193-.193Z" transform="translate(-413.521 -26.325)" fill="#fff"/>
    <path id="Path_1328" data-name="Path 1328" d="M221.52,53a1.8,1.8,0,0,0-3.081-1.274l-4.268,4.268-10.541-2.733a.138.138,0,0,0-.131.036l-1.57,1.573a.136.136,0,0,0,.032.217l8.487,4.63-4.141,4.142-4.233-1.05a.138.138,0,0,0-.13.036l-.736.738a.138.138,0,0,0,.023.211l6.133,3.958a.138.138,0,0,0,.171-.018L213,62.264l4.63,8.488a.138.138,0,0,0,.217.031l1.572-1.571a.138.138,0,0,0,.036-.131l-2.731-10.54,4.266-4.269A1.79,1.79,0,0,0,221.52,53Zm-17.883.545,10.309,2.673-3.3,3.3-8.4-4.582,1.386-1.389Zm13,4.7-.257-.877-.263.077.322,1.1,2.731,10.535-1.388,1.387-4.63-8.488a.137.137,0,0,0-.217-.031l-5.517,5.518-5.9-3.806.562-.564,4.233,1.05a.136.136,0,0,0,.13-.036l4.325-4.326,3.539-3.539,4.323-4.323a1.53,1.53,0,1,1,2.163,2.163Z" transform="translate(-182.213 36.808)" fill="#fff"/>
  </g>
</svg>
