<svg id="Group_612" data-name="Group 612" xmlns="http://www.w3.org/2000/svg" width="15.654" height="15.656" viewBox="0 0 15.654 15.656">
  <path id="Path_1323" data-name="Path 1323" d="M217.443,56.646l-2.783,2.784-6.837-1.773-1.011,1.013,5.569,3.039-2.786,2.785-2.774-.689-.474.475L210.3,66.83l3.6-3.6,3.038,5.57,1.012-1.012-1.772-6.836,2.783-2.785a1.073,1.073,0,1,0-1.518-1.517Z" transform="translate(-203.711 -56.242)" fill="#fff"/>
  <path id="Path_1324" data-name="Path 1324" d="M234.718,134.451l-1.011,1.013,5.569,3.038,2.279-2.279Z" transform="translate(-230.607 -133.036)" fill="#fff"/>
  <path id="Path_1325" data-name="Path 1325" d="M51.2,215.044l2.665-2.666.125.125-2.665,2.665Zm1.361-.075,2.137-2.136.125.125-2.137,2.137Zm1.592-.305,1.377-1.377.125.125-1.377,1.377Zm1.232.053.978-.978.125.125-.978.978Zm1.121.165.689-.689.125.125-.689.689Zm1.044.139.409-.409.125.125-.409.409Zm.845.292.285-.285.125.125-.285.285Z" transform="translate(-51.2 -209.639)" fill="#fff"/>
  <path id="Path_1326" data-name="Path 1326" d="M631.709,532.643l2.665-2.665.125.125-2.666,2.666Zm.075-1.361,2.135-2.137.125.125-2.136,2.136Zm.305-1.592,1.377-1.377.125.125-1.377,1.377Zm-.055-1.232.978-.977.125.125-.978.978Zm-.165-1.121.689-.689.125.125-.689.689Zm-.139-1.044.409-.409.125.125-.409.409Zm-.292-.844.285-.285.125.125-.285.285Z" transform="translate(-621.583 -517.112)" fill="#fff"/>
  <path id="Path_1327" data-name="Path 1327" d="M446.229,116.062a.088.088,0,0,0-.125,0l-.218.218a.088.088,0,1,0,.125.125l.218-.218A.088.088,0,0,0,446.229,116.062Zm-5.4,5.278-.46.46a.088.088,0,1,0,.125.125l.46-.46a.088.088,0,1,0-.125-.125Zm1.84-1.84-.46.46a.088.088,0,1,0,.125.125l.46-.46a.088.088,0,1,0-.125-.125Zm.92-.92-.46.46a.088.088,0,1,0,.125.125l.46-.46a.088.088,0,1,0-.125-.125Zm1.841-1.84-.46.46a.088.088,0,1,0,.125.125l.46-.46a.088.088,0,0,0-.125-.125Zm-.92.92-.46.46a.088.088,0,1,0,.125.125l.46-.46a.088.088,0,1,0-.125-.125Zm-2.76,2.76-.46.46a.088.088,0,1,0,.125.125l.46-.46a.088.088,0,0,0-.125-.125Zm-1.84,1.84-.46.46a.088.088,0,1,0,.125.125l.46-.46a.088.088,0,0,0-.125-.125Zm-.92.92-.218.218a.088.088,0,1,0,.125.125l.218-.218a.088.088,0,0,0-.125-.125Z" transform="translate(-432.16 -114.934)" fill="#fff"/>
  <path id="Path_1328" data-name="Path 1328" d="M214.275,52.354a1.162,1.162,0,0,0-1.984-.821l-2.748,2.749-6.789-1.76a.089.089,0,0,0-.085.023l-1.011,1.013a.088.088,0,0,0,.02.14l5.466,2.982-2.667,2.667-2.726-.676a.089.089,0,0,0-.084.023l-.474.476a.089.089,0,0,0,.015.136l3.949,2.549a.089.089,0,0,0,.11-.012l3.52-3.521,2.982,5.466a.089.089,0,0,0,.14.02l1.012-1.012a.089.089,0,0,0,.023-.084l-1.759-6.788,2.748-2.75A1.153,1.153,0,0,0,214.275,52.354Zm-11.517.351,6.639,1.721-2.123,2.124L201.866,53.6l.892-.894Zm8.372,3.025-.165-.565-.169.05.207.708,1.759,6.785-.894.893-2.982-5.467a.088.088,0,0,0-.14-.02l-3.553,3.554-3.8-2.451.362-.363,2.726.676a.088.088,0,0,0,.083-.023l2.786-2.786,2.279-2.279,2.784-2.784a.985.985,0,1,1,1.393,1.393Z" transform="translate(-198.621 -51.192)" fill="#fff"/>
</svg>
