<svg xmlns="http://www.w3.org/2000/svg" width="250.639" height="152.811" viewBox="0 0 250.639 152.811">
  <g id="Group_874" data-name="Group 874" transform="translate(-511.729 -220.19)">
    <path id="Path_904" data-name="Path 904" d="M362.454,202.407a48.377,48.377,0,1,0,48.377,48.377A48.377,48.377,0,0,0,362.454,202.407Zm0,84.134a35.757,35.757,0,1,1,35.756-35.757A35.757,35.757,0,0,1,362.454,286.541Z" transform="translate(271.468 19.331)" fill="#12e5c8"/>
    <path id="Path_905" data-name="Path 905" d="M376.989,202.407v12.62a35.756,35.756,0,0,1,35.756,35.756h12.621A48.377,48.377,0,0,0,376.989,202.407Z" transform="translate(256.934 19.331)" fill="#66a1e4"/>
    <path id="Path_906" data-name="Path 906" d="M418.853,265.318a35.709,35.709,0,0,1-15.425,29.409l7.176,10.38a48.313,48.313,0,0,0,20.871-39.789Z" transform="translate(250.825 4.796)" fill="#ec7aa1"/>
    <path id="Path_907" data-name="Path 907" d="M376.989,309.911v12.62a48.14,48.14,0,0,0,27.507-8.589l-7.176-10.379A35.584,35.584,0,0,1,376.989,309.911Z" transform="translate(256.934 -4.04)" fill="#dce833"/>
    <path id="Path_908" data-name="Path 908" d="M428.808,218.1l11.106-11.106h17.83" transform="translate(240.644 19.135)" fill="none" stroke="#cfcfcf" stroke-miterlimit="10" stroke-width="1"/>
    <path id="Path_909" data-name="Path 909" d="M434.749,301.256l4.879,4.879h16.126" transform="translate(240.999 -6.961)" fill="none" stroke="#cfcfcf" stroke-miterlimit="10" stroke-width="1"/>
    <path id="Path_910" data-name="Path 910" d="M397.138,330.368l6.4,9.369h18.092" transform="translate(250.551 -13.687)" fill="none" stroke="#cfcfcf" stroke-miterlimit="10" stroke-width="1"/>
    <path id="Path_911" data-name="Path 911" d="M309.337,233.869l-6.229-6.229H288.163" transform="translate(286.091 6.593)" fill="none" stroke="#cfcfcf" stroke-miterlimit="10" stroke-width="1"/>
    <text id="Annual_Leave" data-name="Annual Leave" transform="translate(565.729 234.558)" fill="#454545" font-size="8" font-family="Poppins-Regular, Poppins"><tspan x="-53.536" y="0">Annual Leave</tspan></text>
    <text id="Marriage_Leave" data-name="Marriage Leave" transform="translate(762.368 228.19)" fill="#454545" font-size="8" font-family="Poppins-Regular, Poppins"><tspan x="-61.416" y="0">Marriage Leave</tspan></text>
    <text id="Sick_Leave" data-name="Sick Leave" transform="translate(739.97 300.63)" fill="#454545" font-size="8" font-family="Poppins-Regular, Poppins"><tspan x="-41.048" y="0">Sick Leave</tspan></text>
    <text id="Study_Leave" data-name="Study Leave" transform="translate(722.64 328.637)" fill="#454545" font-size="8" font-family="Poppins-Regular, Poppins"><tspan x="-48.048" y="0">Study Leave</tspan></text>
    <g id="Group_873" data-name="Group 873">
      <text id="_14_Days" data-name="14  Days" transform="translate(574 370)" fill="#454545" font-size="8" font-family="Poppins-Regular, Poppins"><tspan x="-31.608" y="0" xml:space="preserve">14  Days</tspan></text>
      <circle id="Ellipse_457" data-name="Ellipse 457" cx="6" cy="6" r="6" transform="translate(524 361)" fill="#12e5c8"/>
      <circle id="Ellipse_458" data-name="Ellipse 458" cx="6" cy="6" r="6" transform="translate(584 361)" fill="#ec7aa1"/>
      <text id="_07_Days" data-name="07 Days" transform="translate(633 370)" fill="#454545" font-size="8" font-family="Poppins-Regular, Poppins"><tspan x="-31.272" y="0">07 Days</tspan></text>
      <circle id="Ellipse_459" data-name="Ellipse 459" cx="6" cy="6" r="6" transform="translate(645 361)" fill="#66a1e4"/>
      <circle id="Ellipse_460" data-name="Ellipse 460" cx="6" cy="6" r="6" transform="translate(707 361)" fill="#dce833"/>
      <text id="_09_Days" data-name="09 Days" transform="translate(695 370)" fill="#454545" font-size="8" font-family="Poppins-Regular, Poppins"><tspan x="-31.944" y="0">09 Days</tspan></text>
      <text id="_04_Days" data-name="04 Days" transform="translate(757 370)" fill="#454545" font-size="8" font-family="Poppins-Regular, Poppins"><tspan x="-31.936" y="0">04 Days</tspan></text>
    </g>
  </g>
</svg>
