<svg id="Group_786" data-name="Group 786" xmlns="http://www.w3.org/2000/svg" width="117.191" height="28.319" viewBox="0 0 117.191 28.319">
  <path id="Path_1" data-name="Path 1" d="M6.956-122.264a9.862,9.862,0,0,0,10.088,10.088c4.12,0,7.673-2.046,9.179-5.911H22.329a5.518,5.518,0,0,1-5.286,3.1c-3.922,0-6.763-2.813-6.763-7.275s2.842-7.246,6.763-7.246a5.518,5.518,0,0,1,5.286,3.1h3.893a9.415,9.415,0,0,0-9.179-5.939A9.879,9.879,0,0,0,6.956-122.264Zm37.965,2.074a7.722,7.722,0,0,0-7.985-8.07,7.722,7.722,0,0,0-7.985,8.07c0,4.916,3.382,8.1,7.843,8.1A7.843,7.843,0,0,0,44.921-120.19Zm-12.674,0c0-3.552,2.188-5.257,4.632-5.257,2.415,0,4.717,1.705,4.717,5.257s-2.387,5.286-4.8,5.286C34.35-114.9,32.247-116.638,32.247-120.19Zm19.124-.4c0-3.325,1.478-4.319,3.865-4.319h.824v-3.353a5.1,5.1,0,0,0-4.689,2.529V-128h-3.24v15.658h3.24Zm6.593.341c0,4.831,3.268,8.156,7.332,8.156a6.739,6.739,0,0,0,5.484-2.586v2.33h3.268V-128H70.78v2.273a6.665,6.665,0,0,0-5.428-2.529C61.232-128.26,57.964-125.077,57.964-120.246Zm12.816.057c0,3.382-2.3,5.286-4.746,5.286-2.415,0-4.746-1.961-4.746-5.342s2.33-5.2,4.746-5.2C68.478-125.447,70.78-123.543,70.78-120.19ZM88.285-128H77.429v2.643h7.133l-7.133,10.372v2.643H88.285v-2.643h-7.1l7.1-10.372Zm18.329,7.815a7.722,7.722,0,0,0-7.985-8.07,7.722,7.722,0,0,0-7.985,8.07c0,4.916,3.382,8.1,7.843,8.1A7.843,7.843,0,0,0,106.613-120.19Zm-12.674,0c0-3.552,2.188-5.257,4.632-5.257,2.415,0,4.717,1.705,4.717,5.257s-2.387,5.286-4.8,5.286C96.042-114.9,93.94-116.638,93.94-120.19Zm27,7.843h3.211v-9.235c0-4.376-2.756-6.678-6.422-6.678a6.024,6.024,0,0,0-4.66,2.046V-128h-3.24v15.658h3.24V-121.1c0-2.87,1.563-4.348,3.95-4.348,2.359,0,3.922,1.478,3.922,4.348Z" transform="translate(-6.956 132.352)" fill="#fff"/>
  <path id="Path_2" data-name="Path 2" d="M8-42.873H4.575v6.206H8V-37.5H5.592v-1.9h2.14v-.829H5.592v-1.819H8Zm5.43,4.45c0-2.265-3.281-1.391-3.281-2.791,0-.6.455-.883,1.043-.865a.97.97,0,0,1,1.043.82h1.124a1.89,1.89,0,0,0-2.113-1.685c-1.266,0-2.131.678-2.131,1.766,0,2.283,3.29,1.311,3.29,2.809,0,.526-.4.91-1.115.91a1,1,0,0,1-1.106-.918H9.1c0,1.1.954,1.774,2.194,1.774A1.926,1.926,0,0,0,13.43-38.423Zm5.386,0c0-2.265-3.281-1.391-3.281-2.791,0-.6.455-.883,1.043-.865a.97.97,0,0,1,1.043.82h1.124a1.89,1.89,0,0,0-2.113-1.685c-1.266,0-2.131.678-2.131,1.766,0,2.283,3.29,1.311,3.29,2.809,0,.526-.4.91-1.115.91a1,1,0,0,1-1.106-.918H14.482c0,1.1.954,1.774,2.194,1.774A1.926,1.926,0,0,0,18.815-38.423Z" transform="translate(98.333 64.923)" fill="#fff"/>
</svg>
