<svg xmlns="http://www.w3.org/2000/svg" xmlns:xlink="http://www.w3.org/1999/xlink" width="311.973" height="185.718" viewBox="0 0 311.973 185.718">
  <defs>
    <linearGradient id="linear-gradient" x1="0.5" y1="0.148" x2="0.5" y2="0.961" gradientUnits="objectBoundingBox">
      <stop offset="0" stop-color="#3facff"/>
      <stop offset="1" stop-color="#77d1d6" stop-opacity="0"/>
    </linearGradient>
    <linearGradient id="linear-gradient-2" y1="0.5" x2="1" y2="0.5" gradientUnits="objectBoundingBox">
      <stop offset="0" stop-color="#476dfa"/>
      <stop offset="1" stop-color="#77d1d6"/>
    </linearGradient>
  </defs>
  <g id="Group_875" data-name="Group 875" transform="translate(-860 -189.671)">
    <line id="Line_26" data-name="Line 26" x2="293.239" transform="translate(878.599 340.118)" fill="none" stroke="#82828e" stroke-miterlimit="10" stroke-width="0.255" opacity="0.5"/>
    <path id="Path_948" data-name="Path 948" d="M125.621,85.814v169.8H418.859" transform="translate(752.978 103.857)" fill="none" stroke="#82828e" stroke-miterlimit="10" stroke-width="0.255" opacity="0.41"/>
    <text id="_1" data-name="1" transform="translate(862.896 354.694)" fill="#82828e" font-size="6" font-family="Poppins-Light, Poppins" font-weight="300"><tspan x="10.602" y="6">1</tspan></text>
    <text id="Jul" transform="translate(892.712 361.39)" fill="#82828e" font-size="6" font-family="Poppins-Light, Poppins" font-weight="300"><tspan x="4.025" y="6">Jul</tspan></text>
    <text id="Aug" transform="translate(939.712 361.39)" fill="#82828e" font-size="6" font-family="Poppins-Light, Poppins" font-weight="300"><tspan x="2.228" y="6">Aug</tspan></text>
    <text id="Sep" transform="translate(986.712 361.39)" fill="#82828e" font-size="6" font-family="Poppins-Light, Poppins" font-weight="300"><tspan x="2.501" y="6">Sep</tspan></text>
    <text id="Oct" transform="translate(1033.712 361.39)" fill="#82828e" font-size="6" font-family="Poppins-Light, Poppins" font-weight="300"><tspan x="2.837" y="6">Oct</tspan></text>
    <text id="Nov" transform="translate(1080.712 361.39)" fill="#82828e" font-size="6" font-family="Poppins-Light, Poppins" font-weight="300"><tspan x="2.483" y="6">Nov</tspan></text>
    <text id="Dec" transform="translate(1127.712 361.39)" fill="#82828e" font-size="6" font-family="Poppins-Light, Poppins" font-weight="300"><tspan x="2.285" y="6">Dec</tspan></text>
    <text id="_3" data-name="3" transform="translate(861.931 334.025)" fill="#82828e" font-size="6" font-family="Poppins-Light, Poppins" font-weight="300"><tspan x="10.019" y="6">3</tspan></text>
    <text id="_6" data-name="6" transform="translate(861.931 310.378)" fill="#82828e" font-size="6" font-family="Poppins-Light, Poppins" font-weight="300"><tspan x="9.755" y="6">6</tspan></text>
    <text id="_9" data-name="9" transform="translate(860 285.763)" fill="#82828e" font-size="6" font-family="Poppins-Light, Poppins" font-weight="300"><tspan x="10.998" y="6">9</tspan></text>
    <text id="_12" data-name="12" transform="translate(860 263.084)" fill="#82828e" font-size="6" font-family="Poppins-Light, Poppins" font-weight="300"><tspan x="9.564" y="6">12</tspan></text>
    <text id="_18" data-name="18" transform="translate(860 241.518)" fill="#82828e" font-size="6" font-family="Poppins-Light, Poppins" font-weight="300"><tspan x="9.252" y="6">18</tspan></text>
    <text id="_21" data-name="21" transform="translate(860 219.951)" fill="#82828e" font-size="6" font-family="Poppins-Light, Poppins" font-weight="300"><tspan x="9.564" y="6">21</tspan></text>
    <g id="Group_832" data-name="Group 832" transform="translate(878.342 256.599)">
      <path id="Path_953" data-name="Path 953" d="M390.79,264.495H125.756V193.014s-5.1,48.656,21.371,51.918,31.431-37.36,56.2-36.09,29.291,46.938,64.892,46.967c42.391.035,45.989-94.888,83.5-94.888,11.631,0,15.047,4.86,20.333,12.848.138.208,1.628,5.308,1.911,5.75,3.188,4.963,5.006,11.449,6.985,16.575,3.536,9.154,5.558,15.655,5.558,15.655s3.316,10.5,10.07,17.732c1.934,2.07,2.6,4.575,5.294,6.19,4.813,2.895,12.173,4.027,16.947,5.6v23.22Z" transform="translate(-125.362 -161.452)" opacity="0.35" fill="url(#linear-gradient)"/>
      <path id="Path_954" data-name="Path 954" d="M127.294,203.072s-3.373,47.829,22.94,51.09,29.235-38.075,53.855-36.805,28.5,48.123,63.894,48.152c42.142.035,48.507-96.569,85.8-96.569,16.581,0,20.031,15.824,24.524,26.011,4.441,10.061,9.178,26.234,9.178,26.234s2.466,8.887,13.86,21.589c1.678,1.871,4.626,3.1,8.1,4.149,3.781,1.148,8.229,1.948,10.8,3.123" transform="translate(-126.825 -170.033)" fill="none" stroke="#707070" stroke-miterlimit="10" stroke-width="1.04"/>
    </g>
    <g id="Group_192" data-name="Group 192" transform="translate(900.049 336.462)">
      <g id="Group_191" data-name="Group 191" transform="translate(0)">
        <path id="Path_955" data-name="Path 955" d="M139.264,259.1a3.385,3.385,0,1,1-3.385-3.385A3.385,3.385,0,0,1,139.264,259.1Z" transform="translate(-132.494 -255.712)" fill="url(#linear-gradient-2)"/>
      </g>
      <path id="Path_956" data-name="Path 956" d="M137.922,259.448a1.692,1.692,0,1,1-1.692-1.693A1.692,1.692,0,0,1,137.922,259.448Z" transform="translate(-132.845 -256.063)" fill="#fff"/>
    </g>
    <g id="Group_194" data-name="Group 194" transform="translate(941.131 303.876)">
      <g id="Group_193" data-name="Group 193" transform="translate(0)">
        <path id="Path_957" data-name="Path 957" d="M179.209,217.715a3.385,3.385,0,1,1-3.385-3.386A3.385,3.385,0,0,1,179.209,217.715Z" transform="translate(-172.439 -214.329)" fill="url(#linear-gradient-2)"/>
      </g>
      <path id="Path_958" data-name="Path 958" d="M177.868,218.066a1.692,1.692,0,1,1-1.693-1.693A1.693,1.693,0,0,1,177.868,218.066Z" transform="translate(-172.79 -214.68)" fill="#fff"/>
    </g>
    <g id="Group_196" data-name="Group 196" transform="translate(1038.228 337.53)">
      <g id="Group_195" data-name="Group 195">
        <path id="Path_959" data-name="Path 959" d="M221.8,274a3.385,3.385,0,1,1-3.385-3.385A3.385,3.385,0,0,1,221.8,274Z" transform="translate(-215.025 -270.613)" fill="url(#linear-gradient-2)"/>
      </g>
      <path id="Path_960" data-name="Path 960" d="M220.454,274.349a1.692,1.692,0,1,1-1.692-1.693A1.692,1.692,0,0,1,220.454,274.349Z" transform="translate(-215.376 -270.964)" fill="#fff"/>
    </g>
    <g id="Group_198" data-name="Group 198" transform="translate(992.003 338.562)">
      <g id="Group_197" data-name="Group 197" transform="translate(0 0)">
        <path id="Path_961" data-name="Path 961" d="M264.74,162.974a3.385,3.385,0,1,1-3.385-3.385A3.385,3.385,0,0,1,264.74,162.974Z" transform="translate(-257.97 -159.589)" fill="url(#linear-gradient-2)"/>
      </g>
      <path id="Path_962" data-name="Path 962" d="M263.4,163.325a1.693,1.693,0,1,1-1.693-1.692A1.693,1.693,0,0,1,263.4,163.325Z" transform="translate(-258.321 -159.94)" fill="#fff"/>
    </g>
    <g id="Group_200" data-name="Group 200" transform="translate(1084.804 260.4)">
      <g id="Group_199" data-name="Group 199" transform="translate(0 0)">
        <path id="Path_963" data-name="Path 963" d="M304.889,227.995a3.385,3.385,0,1,1-3.386-3.385A3.385,3.385,0,0,1,304.889,227.995Z" transform="translate(-298.118 -224.61)" fill="url(#linear-gradient-2)"/>
      </g>
      <path id="Path_964" data-name="Path 964" d="M303.547,228.346a1.692,1.692,0,1,1-1.693-1.693A1.693,1.693,0,0,1,303.547,228.346Z" transform="translate(-298.469 -224.961)" fill="#fff"/>
    </g>
    <text id="_24" data-name="24" transform="translate(860 200.644)" fill="#82828e" font-size="6" font-family="Poppins-Light, Poppins" font-weight="300"><tspan x="7.638" y="6">24</tspan></text>
    <line id="Line_90" data-name="Line 90" x2="293.239" transform="translate(878.599 320.811)" fill="none" stroke="#82828e" stroke-miterlimit="10" stroke-width="0.255" opacity="0.33"/>
    <line id="Line_91" data-name="Line 91" x2="293.239" transform="translate(878.599 301.503)" fill="none" stroke="#82828e" stroke-miterlimit="10" stroke-width="0.255" opacity="0.33"/>
    <line id="Line_92" data-name="Line 92" x2="293.239" transform="translate(878.599 282.196)" fill="none" stroke="#82828e" stroke-miterlimit="10" stroke-width="0.255" opacity="0.33"/>
    <line id="Line_93" data-name="Line 93" x2="293.239" transform="translate(878.599 262.889)" fill="none" stroke="#82828e" stroke-miterlimit="10" stroke-width="0.255" opacity="0.33"/>
    <line id="Line_94" data-name="Line 94" x2="293.239" transform="translate(878.599 243.581)" fill="none" stroke="#82828e" stroke-miterlimit="10" stroke-width="0.255" opacity="0.33"/>
    <line id="Line_95" data-name="Line 95" x2="293.239" transform="translate(878.599 224.274)" fill="none" stroke="#82828e" stroke-miterlimit="10" stroke-width="0.255" opacity="0.33"/>
    <line id="Line_96" data-name="Line 96" x2="293.239" transform="translate(878.599 204.967)" fill="none" stroke="#82828e" stroke-miterlimit="10" stroke-width="0.255" opacity="0.33"/>
    <g id="Group_833" data-name="Group 833" transform="translate(1140.488 313.365)">
      <g id="Group_199-2" data-name="Group 199" transform="translate(0 0)">
        <path id="Path_963-2" data-name="Path 963" d="M304.889,227.995a3.385,3.385,0,1,1-3.386-3.385A3.385,3.385,0,0,1,304.889,227.995Z" transform="translate(-298.118 -224.61)" fill="url(#linear-gradient-2)"/>
      </g>
      <path id="Path_964-2" data-name="Path 964" d="M303.547,228.346a1.692,1.692,0,1,1-1.693-1.693A1.693,1.693,0,0,1,303.547,228.346Z" transform="translate(-298.469 -224.961)" fill="#fff"/>
    </g>
  </g>
</svg>
