<svg xmlns="http://www.w3.org/2000/svg" xmlns:xlink="http://www.w3.org/1999/xlink" width="99" height="99" viewBox="0 0 99 99">
  <defs>
    <filter id="Ellipse_471" x="0" y="0" width="99" height="99" filterUnits="userSpaceOnUse">
      <feOffset input="SourceAlpha"/>
      <feGaussianBlur stdDeviation="2" result="blur"/>
      <feFlood flood-opacity="0.11"/>
      <feComposite operator="in" in2="blur"/>
      <feComposite in="SourceGraphic"/>
    </filter>
  </defs>
  <g id="Group_871" data-name="Group 871" transform="translate(-104 -172)">
    <g id="Group_838" data-name="Group 838" transform="translate(10 -5)">
      <g transform="matrix(1, 0, 0, 1, 94, 177)" filter="url(#Ellipse_471)">
        <circle id="Ellipse_471-2" data-name="Ellipse 471" cx="43.5" cy="43.5" r="43.5" transform="translate(6 6)" fill="#fff"/>
      </g>
      <g id="file_1_" data-name="file (1)" transform="translate(126 204)">
        <path id="Path_1442" data-name="Path 1442" d="M23.275,0H5.019A5.042,5.042,0,0,0,0,5.008V39.531a5.042,5.042,0,0,0,5.019,5.008H29.8a5.041,5.041,0,0,0,5.019-5.008V12.107Zm0,0" fill="#11a0d4"/>
        <path id="Path_1443" data-name="Path 1443" d="M335.269.488l11.5,12.084h-7.653a3.84,3.84,0,0,1-3.843-3.843Zm0,0" transform="translate(-311.938 -0.454)" fill="#0670b4"/>
        <g id="Group_837" data-name="Group 837" transform="translate(12.938 30.128)">
          <path id="Path_1444" data-name="Path 1444" d="M108.69,511.676h-7.979a.485.485,0,0,0,0,.969H108.7a.485.485,0,1,0,0-.969Zm0,0" transform="translate(-100.227 -502.597)" fill="#fff"/>
          <path id="Path_1445" data-name="Path 1445" d="M141.875,214.768a.481.481,0,0,0,.708,0l2.836-3.049a.484.484,0,0,0-.708-.659l-2,2.147v-5.293a.485.485,0,0,0-.97,0v5.293l-2-2.147a.484.484,0,0,0-.708.659Zm0,0" transform="translate(-137.755 -207.429)" fill="#fff"/>
        </g>
      </g>
    </g>
    <g id="Group_839" data-name="Group 839" transform="translate(-1534.431 1197.472)">
      <path id="Path_1447" data-name="Path 1447" d="M155.6,311H141.91a.73.73,0,1,0,0,1.459H155.6a.73.73,0,1,0,0-1.459Zm0,0" transform="translate(1539.184 -1286.609)" fill="#fafafa"/>
      <path id="Path_1448" data-name="Path 1448" d="M141.91,268.459h8.2a.73.73,0,1,0,0-1.459h-8.2a.73.73,0,1,0,0,1.459Zm0,0" transform="translate(1539.184 -1245.819)" fill="#fafafa"/>
    </g>
    <path id="Path_1456" data-name="Path 1456" d="M295.448,73.646v.8a.445.445,0,0,1-.445.445h0a.451.451,0,0,1-.473-.43c0-.005,0-.01,0-.015v-.8a4.3,4.3,0,0,1-2.735-1.1.557.557,0,0,1-.16-.394.635.635,0,0,1,.591-.642.607.607,0,0,1,.365.131,3.785,3.785,0,0,0,1.933.853V69.577c-1.349-.365-2.757-.824-2.757-2.479a2.643,2.643,0,0,1,2.757-2.479v-.831a.453.453,0,0,1,.459-.446H295a.445.445,0,0,1,.445.445h0v.868a3.848,3.848,0,0,1,2.283.919.557.557,0,0,1,.16.394.627.627,0,0,1-.627.62.54.54,0,0,1-.3-.095,3.422,3.422,0,0,0-1.51-.656V68.41c1.349.365,2.793.89,2.793,2.611C298.249,72.3,297.446,73.479,295.448,73.646Zm-.919-7.861c-.853.066-1.415.554-1.415,1.232s.62.919,1.415,1.152V65.785Zm.919,4.055v2.654c1.079-.131,1.458-.788,1.458-1.342C296.921,70.409,296.28,70.095,295.448,69.84Z" transform="translate(-143.127 140.313)" fill="#fff"/>
  </g>
</svg>
