<svg xmlns="http://www.w3.org/2000/svg" width="33" height="33" viewBox="0 0 33 33">
  <g id="Group_882" data-name="Group 882" transform="translate(-1859 -9642)">
    <g id="Ellipse_491" data-name="Ellipse 491" transform="translate(1859 9642)" fill="#fff" stroke="#eaea30" stroke-width="0.6">
      <circle cx="16.5" cy="16.5" r="16.5" stroke="none"/>
      <circle cx="16.5" cy="16.5" r="16.2" fill="none"/>
    </g>
    <g id="email" transform="translate(1869 9651)">
      <path id="Path_1476" data-name="Path 1476" d="M18.7,16.367H17.168a.418.418,0,0,1-.418-.418V14.418a.418.418,0,1,1,.835,0v1.114H18.7a.418.418,0,0,1,0,.835Z" transform="translate(-7.422 -5.76)" fill="#eaea30"/>
      <path id="Path_1477" data-name="Path 1477" d="M14.62,18.24a3.62,3.62,0,1,1,3.62-3.62A3.624,3.624,0,0,1,14.62,18.24Zm0-6.4A2.785,2.785,0,1,0,17.4,14.62,2.788,2.788,0,0,0,14.62,11.835Z" transform="translate(-4.874 -4.431)" fill="#eaea30"/>
      <path id="Path_1478" data-name="Path 1478" d="M5.152,8.8h-3.9A1.255,1.255,0,0,1,0,7.544V2.253A1.255,1.255,0,0,1,1.253,1H11a1.255,1.255,0,0,1,1.253,1.253V5.595a.418.418,0,1,1-.835,0V2.253A.418.418,0,0,0,11,1.835H1.253a.418.418,0,0,0-.418.418V7.544a.418.418,0,0,0,.418.418h3.9a.418.418,0,1,1,0,.835Z" fill="#eaea30"/>
      <path id="Path_1479" data-name="Path 1479" d="M6.127,7.01a1.461,1.461,0,0,1-.655-.154L.232,4.261A.418.418,0,0,1,.6,3.513l5.241,2.6a.646.646,0,0,0,.563,0l5.242-2.6a.418.418,0,1,1,.371.749L6.78,6.857a1.461,1.461,0,0,1-.653.153Z" transform="translate(0 -1.094)" fill="#eaea30"/>
    </g>
  </g>
</svg>
