<svg id="stop" xmlns="http://www.w3.org/2000/svg" width="18.339" height="18.339" viewBox="0 0 18.339 18.339">
  <path id="Path_1272" data-name="Path 1272" d="M9.169,0a9.17,9.17,0,1,0,9.169,9.17A9.169,9.169,0,0,0,9.169,0Zm0,17.193A8.023,8.023,0,1,1,17.193,9.17,8.023,8.023,0,0,1,9.169,17.193Zm0,0" fill="#fff"/>
  <path id="Path_1273" data-name="Path 1273" d="M135.757,126.842a.573.573,0,0,0-.81,0l-3.647,3.647-3.647-3.647a.573.573,0,0,0-.824.8l.014.014,3.647,3.647-3.647,3.647a.573.573,0,0,0,.8.824l.014-.014,3.647-3.647,3.647,3.647a.573.573,0,0,0,.81-.81L132.11,131.3l3.647-3.647A.573.573,0,0,0,135.757,126.842Zm0,0" transform="translate(-122.13 -122.13)" fill="#fff"/>
</svg>
