<svg xmlns="http://www.w3.org/2000/svg" width="14.825" height="14.825" viewBox="0 0 14.825 14.825">
  <path id="blog" d="M13.356.127a.434.434,0,0,0-.614,0L9.395,3.475H1.8a1.3,1.3,0,0,0-1.3,1.3v6.081a1.3,1.3,0,0,0,1.3,1.3h.463v2.23a.434.434,0,0,0,.745.3L5.49,12.161h5.058a1.3,1.3,0,0,0,1.3-1.3V5.932L15.2,2.584a.435.435,0,0,0,0-.614ZM9.364,7.191,8.135,5.962l3.685-3.685,1.228,1.228ZM7.672,6.728l.925.925-1.586.661Zm3.31,4.13a.435.435,0,0,1-.434.434H5.308a.435.435,0,0,0-.31.131l-1.861,1.9v-1.6a.434.434,0,0,0-.434-.434H1.8a.435.435,0,0,1-.434-.434V4.778A.435.435,0,0,1,1.8,4.343H8.526L7.214,5.655a.444.444,0,0,0-.1.145l-1.2,2.886H3.57a.434.434,0,1,0,0,.868H6.205a.439.439,0,0,0,.171-.035l3.15-1.312a.441.441,0,0,0,.145-.1L10.983,6.8Zm2.68-7.967L12.435,1.663l.614-.614,1.228,1.228Zm0,0" transform="translate(-0.501)" fill="#c2c2c2"/>
</svg>
