<svg xmlns="http://www.w3.org/2000/svg" width="20" height="20" viewBox="0 0 20 20">
  <path id="gear" d="M19.529,7.723l-1.537-.334A8.366,8.366,0,0,0,17.5,6.2l.851-1.324a.6.6,0,0,0-.08-.746L15.874,1.731a.6.6,0,0,0-.746-.08L13.8,2.5a8.365,8.365,0,0,0-1.193-.495L12.277.47A.6.6,0,0,0,11.693,0H8.307A.6.6,0,0,0,7.723.47L7.389,2.008A8.366,8.366,0,0,0,6.2,2.5L4.872,1.651a.6.6,0,0,0-.746.08L1.731,4.126a.6.6,0,0,0-.08.746L2.5,6.2a8.366,8.366,0,0,0-.495,1.193L.47,7.723A.6.6,0,0,0,0,8.307v3.387a.6.6,0,0,0,.471.584l1.537.334A8.365,8.365,0,0,0,2.5,13.8l-.851,1.324a.6.6,0,0,0,.08.746l2.395,2.395a.6.6,0,0,0,.746.08L6.2,17.5a8.366,8.366,0,0,0,1.193.495l.334,1.537A.6.6,0,0,0,8.307,20h3.387a.6.6,0,0,0,.584-.471l.334-1.537A8.365,8.365,0,0,0,13.8,17.5l1.324.851a.6.6,0,0,0,.746-.08l2.395-2.395a.6.6,0,0,0,.08-.746L17.5,13.8a8.366,8.366,0,0,0,.495-1.193l1.537-.334A.6.6,0,0,0,20,11.693V8.307A.6.6,0,0,0,19.529,7.723ZM13.586,10A3.586,3.586,0,1,1,10,6.414,3.59,3.59,0,0,1,13.586,10Zm0,0" transform="translate(0 0)" fill="#fff"/>
</svg>
