<svg id="Group_613" data-name="Group 613" xmlns="http://www.w3.org/2000/svg" width="14" height="13.566" viewBox="0 0 14 13.566">
  <path id="Path_1329" data-name="Path 1329" d="M32,96m.875,0h12.25a.773.773,0,0,1,.875.875v10.5a.773.773,0,0,1-.875.875H32.875a.773.773,0,0,1-.875-.875v-10.5A.773.773,0,0,1,32.875,96Z" transform="translate(-32 -94.684)" fill="#fff"/>
  <path id="Path_1330" data-name="Path 1330" d="M255.984-.016m.438,0h0a.387.387,0,0,1,.438.438v3.5a.387.387,0,0,1-.438.438h0a.387.387,0,0,1-.438-.438V.422a.387.387,0,0,1,.438-.438Z" transform="translate(-252.921 0.02)" fill="#c3c3c3"/>
  <path id="Path_1331" data-name="Path 1331" d="M767.984-.016m.438,0h0a.387.387,0,0,1,.438.438v3.5a.387.387,0,0,1-.438.438h0a.387.387,0,0,1-.438-.438V.422a.387.387,0,0,1,.438-.438Z" transform="translate(-757.921 0.02)" fill="#c3c3c3"/>
</svg>
