<svg xmlns="http://www.w3.org/2000/svg" xmlns:xlink="http://www.w3.org/1999/xlink" width="80" height="80" viewBox="0 0 80 80">
  <defs>
    <filter id="iconmonstr-calendar-3" x="14.297" y="18.008" width="51.054" height="49.677" filterUnits="userSpaceOnUse">
      <feOffset dy="3" input="SourceAlpha"/>
      <feGaussianBlur stdDeviation="3" result="blur"/>
      <feFlood flood-opacity="0.161"/>
      <feComposite operator="in" in2="blur"/>
      <feComposite in="SourceGraphic"/>
    </filter>
  </defs>
  <g id="Group_872" data-name="Group 872" transform="translate(-0.007 -0.101)">
    <circle id="Ellipse_485" data-name="Ellipse 485" cx="40" cy="40" r="40" transform="translate(0.007 0.101)" fill="#32b6a6"/>
    <g transform="matrix(1, 0, 0, 1, 0.01, 0.1)" filter="url(#iconmonstr-calendar-3)">
      <path id="iconmonstr-calendar-3-2" data-name="iconmonstr-calendar-3" d="M19.282,17.527H13.773V12.018h5.509Zm8.264-5.509H22.036v5.509h5.509ZM11.018,20.282H5.509v5.509h5.509Zm8.264,0H13.773v5.509h5.509Zm-8.264-8.264H5.509v5.509h5.509ZM33.054,1V19.436c0,3.293-9.156,13.241-13.512,13.241H0V1ZM30.3,9.264H2.755V29.923H18.4c5.724,0,3.633-8.264,3.633-8.264S30.3,23.932,30.3,18.275Z" transform="translate(23.3 23.01)" fill="#fff"/>
    </g>
  </g>
</svg>
