<svg xmlns="http://www.w3.org/2000/svg" width="14.825" height="13.59" viewBox="0 0 14.825 13.59">
  <path id="iconmonstr-pen-3" d="M8.322,4.827a.676.676,0,0,1,.022-.959L11.1,1.2a.689.689,0,0,1,.479-.2.663.663,0,0,1,.479.2L8.322,4.827Zm-4.53,6.808a.282.282,0,0,0,.392.4l.463-.45-.391-.4Zm3.91-5.2L6.118,7.966a6.541,6.541,0,0,0-1.686,2.741l.7.722a6.543,6.543,0,0,0,2.791-1.6L9.505,8.293ZM12.321,1.7,8.242,5.656,10.3,7.778l4.079-3.955A1.477,1.477,0,0,0,12.321,1.7Zm-1.2,7v4.654H1.235V5.942h4.95L7.456,4.706H0V14.59H12.354V7.5L11.119,8.7Z" transform="translate(0 -1)" fill="#c2c2c2"/>
</svg>
